# xmcd CD database file
#
# Track frame offsets:
#	150
#	21206
#	41553
#	61028
#	75923
#	98141
#	114305
#	129026
#	149994
#	172428
#	187822
#	207617
#	227060
#
# Disc length: 3288 seconds
#
# Revision: 0
# Processed by: cddbd v1.5.2PL0 Copyright (c) Steve Scherf et al.
# Submitted via: CDex 1.70beta2
#
DISCID=ae0cd60d
DTITLE=Bowden and Williamson - Urban Prarie Tales
DYEAR=2008
DGENRE=Blues
TTITLE0=Be Still
TTITLE1=Big Love
TTITLE2=Love's Ghost
TTITLE3=Neighbour of the Beast
TTITLE4=Top Cat
TTITLE5=Champagne Poverty
TTITLE6=4 Penny Rope
TTITLE7=AM PM Blues (live)
TTITLE8=You Got It
TTITLE9=Justify My Life (live)
TTITLE10=No Salvation
TTITLE11=Roll Back Time
TTITLE12=Quality Time
EXTD=YEAR: 2008
EXTT0=
EXTT1=
EXTT2=
EXTT3=
EXTT4=
EXTT5=
EXTT6=
EXTT7=
EXTT8=
EXTT9=
EXTT10=
EXTT11=
EXTT12=
PLAYORDER=
